<?xml version="1.0" encoding="utf-8"?>
<!-- Generator: Adobe Illustrator 22.0.1, SVG Export Plug-In . SVG Version: 6.00 Build 0)  -->
<svg version="1.1" id="Layer_1" xmlns="http://www.w3.org/2000/svg" xmlns:xlink="http://www.w3.org/1999/xlink" x="0px" y="0px"
	 viewBox="0 0 104.2 79.3" style="enable-background:new 0 0 104.2 79.3;" xml:space="preserve">
<style type="text/css">
	.st0{fill:#FFFFFF;}
</style>
<path class="st0" d="M52.3,0.2h-0.5h-52v4.9v74.1h52h0.5h52V5.1V0.2H52.3z M51.9,7.2h0.5h40.1L54.5,45c-0.9,0.7-1.7,1-2.4,1.1
	c-0.8-0.1-1.6-0.4-2.4-1.1L11.8,7.2H51.9z M6.8,12.1l27.5,27.6L6.8,67.2V12.1z M52.3,72.2h-0.5H11.8l27.5-27.5l5.8,5.8
	c2.2,1.7,4.4,2.6,6.7,2.8v0c0.1,0,0.2,0,0.2,0c0.1,0,0.2,0,0.2,0v0c2.3-0.1,4.6-1,6.7-2.8l5.8-5.8l27.5,27.5H52.3z M97.4,67.2
	L69.8,39.7l27.5-27.6V67.2z"/>
</svg>
